<svg viewBox="0 0 32 32" xml:space="preserve" xmlns="http://www.w3.org/2000/svg"><path d="M8 27a4 4 0 0 0 8 0M15 8.674A7 7 0 0 0 5 15v8l-2 2v2h18v-2l-2-2v-5M5 23h7" fill="none" stroke="#f0c95c" stroke-linejoin="round" stroke-miterlimit="10" stroke-width="2" class="stroke-000000"></path><path d="M12 5a2 2 0 0 0-2 2v2h4V7a2 2 0 0 0-2-2z" fill="#f0c95c" class="fill-000000"></path><path fill="none" stroke="#f0c95c" stroke-linejoin="round" stroke-miterlimit="10" stroke-width="2" d="M14 23h2" class="stroke-000000"></path><circle cx="22" cy="8" fill="none" r="7" stroke="#f0c95c" stroke-linejoin="round" stroke-miterlimit="10" stroke-width="2" class="stroke-000000"></circle><path fill="none" stroke="#f0c95c" stroke-linejoin="round" stroke-miterlimit="10" stroke-width="2" d="M22 10v2M22 8V4" class="stroke-000000"></path></svg>